<?xml version="1.0" encoding="utf-8"?>
<!-- Generator: Adobe Illustrator 24.0.0, SVG Export Plug-In . SVG Version: 6.00 Build 0)  -->
<svg version="1.1" id="Layer_1" xmlns="http://www.w3.org/2000/svg" xmlns:xlink="http://www.w3.org/1999/xlink" x="0px" y="0px"
	 viewBox="0 0 164 165" style="enable-background:new 0 0 164 165;" xml:space="preserve">
<style type="text/css">
	.st0{fill:#0045A2;}
	.st1{fill:#00AEEF;}
</style>
<g>
	<path class="st0" d="M162.8,88.3c-3.2,41.6-38,74.3-80.4,74.3c-5.8,0-11.5-0.6-17-1.8c-4.6-1-9-2.4-13.3-4.1
		c-6.2-2.5-12-5.8-17.3-9.7c-4.9-3.6-9.3-7.7-13.3-12.2C9.2,120.7,1.8,102.2,1.8,82c0-20.2,7.5-38.7,19.8-52.9v49.6
		c-0.1,1.1-0.1,2.2-0.1,3.3c0,1.1,0,2.2,0.1,3.3c0.7,13.1,5.6,25.2,13.3,34.8c4.8,6,10.7,11,17.3,14.9c4.1,2.4,8.6,4.3,13.3,5.6
		c5.4,1.6,11.1,2.4,17,2.4c31.5,0,57.5-23.9,60.6-54.7H162.8z"/>
	<path class="st0" d="M161.6,66.4h-20.2C134.5,40.3,110.7,21,82.4,21c-5.9,0-11.6,0.8-17,2.4V3.1c5.5-1.2,11.2-1.8,17-1.8
		C121.6,1.3,154.3,29.3,161.6,66.4z"/>
	<path class="st1" d="M130.1,82c0,2.1-0.1,4.3-0.4,6.3c-3.1,23.3-23,41.3-47.2,41.3c-6,0-11.7-1.1-17-3.1c-4.9-1.9-9.3-4.5-13.3-7.7
		C41.6,110,34.8,96.8,34.8,82V16.9C40.1,13,46,9.7,52.2,7.2V82c0,2.2,0.2,4.3,0.7,6.3c1.6,7.8,6.3,14.4,12.6,18.7
		c4.8,3.3,10.7,5.2,17,5.2c14.5,0,26.7-10.3,29.6-23.9c0.4-2,0.7-4.2,0.7-6.3c0-5.7-1.6-11.1-4.3-15.6c-5.3-8.8-14.9-14.6-25.9-14.6
		c-6.3,0-12.1,1.9-17,5.2V37.5c5.3-2,11-3.1,17-3.1c20.8,0,38.5,13.4,45,32C129.1,71.3,130.1,76.5,130.1,82z"/>
	<path class="st0" d="M97.1,82c0,2.3-0.5,4.4-1.4,6.3c-2.4,4.9-7.4,8.3-13.2,8.3c-5.8,0-10.9-3.4-13.2-8.3c-0.9-1.9-1.4-4.1-1.4-6.3
		c0-8.1,6.6-14.6,14.6-14.6C90.5,67.4,97.1,73.9,97.1,82z"/>
</g>
</svg>
