<?xml version="1.0" encoding="utf-8"?>
<!-- Generator: Adobe Illustrator 24.0.0, SVG Export Plug-In . SVG Version: 6.00 Build 0)  -->
<svg version="1.1" id="Layer_1" xmlns="http://www.w3.org/2000/svg" xmlns:xlink="http://www.w3.org/1999/xlink" x="0px" y="0px"
	 viewBox="0 0 148.8 149.1" style="enable-background:new 0 0 148.8 149.1;" xml:space="preserve">
<style type="text/css">
	.st0{fill:#2C74B3;}
	.st1{fill:#FFA500;}
</style>
<path class="st0" d="M148.8,80.4c-3,38.4-35.1,68.7-74.3,68.7c-5.4,0-10.6-0.6-15.7-1.7c-4.2-0.9-8.3-2.2-12.3-3.8
	c-5.7-2.3-11.1-5.3-16-8.9c-4.5-3.3-8.6-7.1-12.3-11.3C6.9,110.3,0,93.2,0,74.5c0-18.7,6.9-35.8,18.3-48.9v45.8
	c-0.1,1-0.1,2-0.1,3.1c0,1,0,2,0.1,3.1c0.7,12.1,5.1,23.2,12.3,32.1c4.4,5.5,9.9,10.2,16,13.7c3.8,2.2,7.9,4,12.3,5.2
	c5,1.4,10.3,2.2,15.7,2.2c29.1,0,53.1-22.1,56-50.5H148.8z"/>
<path class="st0" d="M147.7,60.1H129c-6.4-24.1-28.3-41.9-54.5-41.9c-5.4,0-10.7,0.8-15.7,2.2V1.7C63.9,0.6,69.1,0,74.5,0
	C110.8,0,140.9,25.8,147.7,60.1z"/>
<path class="st1" d="M118.5,74.5c0,2-0.1,3.9-0.4,5.9c-2.9,21.5-21.3,38.2-43.6,38.2c-5.5,0-10.8-1-15.7-2.9
	c-4.5-1.7-8.6-4.1-12.3-7.1c-9.8-8.1-16-20.3-16-34V14.4c4.9-3.6,10.3-6.6,16-8.9v69.1c0,2,0.2,4,0.6,5.9
	c1.5,7.2,5.8,13.3,11.7,17.3c4.5,3,9.9,4.8,15.7,4.8c13.4,0,24.7-9.5,27.4-22.1c0.4-1.9,0.6-3.8,0.6-5.9c0-5.3-1.5-10.2-4-14.4
	c-4.9-8.1-13.8-13.5-24-13.5c-5.8,0-11.2,1.8-15.7,4.8v-18c4.9-1.9,10.2-2.9,15.7-2.9c19.2,0,35.6,12.3,41.6,29.5
	C117.7,64.6,118.5,69.5,118.5,74.5z"/>
<path class="st0" d="M88.1,74.5c0,2.1-0.5,4.1-1.3,5.9c-2.2,4.5-6.8,7.7-12.2,7.7c-5.4,0-10-3.1-12.2-7.7c-0.8-1.8-1.3-3.8-1.3-5.9
	C61,67.1,67.1,61,74.5,61C82,61,88.1,67.1,88.1,74.5z"/>
</svg>
