<?xml version="1.0" encoding="utf-8"?>
<!-- Generator: Adobe Illustrator 24.0.0, SVG Export Plug-In . SVG Version: 6.00 Build 0)  -->
<svg version="1.1" id="Layer_1" xmlns="http://www.w3.org/2000/svg" xmlns:xlink="http://www.w3.org/1999/xlink" x="0px" y="0px"
	 viewBox="0 0 712.7 159.2" style="enable-background:new 0 0 712.7 159.2;" xml:space="preserve">
<style type="text/css">
	.st0{fill:#2C74B3;}
	.st1{fill:#FFA500;}
</style>
<g>
	<path class="st0" d="M174.9,125.1V35H223c7.9,0,14.1,2.2,18.8,6.5c4.8,4.5,7.2,10.5,7.2,18c0,8-2.2,13.9-6.7,17.7
		c3.3,2,5.8,4.8,7.7,8.4c1.9,3.6,2.8,7.5,2.8,11.8c0,8.4-2.4,15.1-7.3,20.1c-4.9,5-11.3,7.5-19.5,7.5H174.9z M222.1,68.5
		c3.2,0,5.4-0.7,6.5-2.3c1.2-1.5,1.7-3.7,1.7-6.6c0-2.7-0.8-4.5-2.3-5.4c-1.6-0.9-3.6-1.4-6.3-1.4h-28.3v15.6H222.1z M222.3,107.2
		c5,0,8.3-0.9,9.8-2.8c1.2-1.2,1.8-3.3,1.8-6.3c-0.1-4.3-1-7.3-2.7-9.1c-1.7-1.8-4.6-2.6-8.8-2.6h-29v20.8H222.3z"/>
	<path class="st0" d="M271.5,125.1V40.3l18.6-7.4v92.2H271.5z"/>
	<path class="st0" d="M337.3,126.4c-8.2,0-14.6-2.2-19.1-6.6c-4.9-4.8-7.4-11.7-7.4-20.6V58.7h18.5v38.7c0,4.9,1.1,8.2,3.2,10
		c2.1,1.8,5.3,2.6,9.5,2.6c4.4,0,7.5-1,9.5-3.1c1.9-2.1,2.9-5.3,2.9-9.7V58.7H373v66.4h-18.6v-1.9
		C351.1,125.3,345.4,126.4,337.3,126.4z"/>
	<path class="st0" d="M424.3,126.3c-9.9,0-18-3.3-24.4-9.9c-6.3-6.5-9.4-14.7-9.4-24.6c0-10,3.1-18.2,9.4-24.6
		c6.3-6.5,14.3-9.7,23.9-9.7c10.3,0,18.4,3.8,24.2,11.3c6.1,7.7,9.1,17.5,9.1,29.6h-47.3c1,3.3,2.7,5.9,5.2,7.9c2.5,2,5.4,3,8.7,3
		c2.5,0,4.9-0.6,7.4-1.9c2.5-1.2,4.2-2.6,5.1-4.2l14,12.8C442.9,122.9,434.2,126.3,424.3,126.3z M436.3,83.3c-0.9-2.9-2.4-5-4.7-6.5
		c-2.3-1.5-4.9-2.2-7.9-2.2c-3.5,0-6.5,0.8-8.9,2.3c-2.4,1.5-4.1,3.7-5,6.4H436.3z"/>
	<path class="st0" d="M494,143.6c5.1-1.1,9.9-3.1,14.3-6.2c4.4-3.1,6.6-6.3,6.6-9.6v-5c-3.3,2.3-8.3,3.5-14.9,3.6h-0.1
		c-9.5,0-16.8-3.4-22.1-10.4c-4.9-6.3-7.3-14.2-7.3-23.6c0-9.9,2.4-18,7.2-24.4c5.4-7.1,12.9-10.6,22.6-10.6c5.5,0,10.5,1.3,15,3.8
		v-2.6h18.2v65.1c0,10-2.7,17.8-8.2,23.4c-4.6,4.7-12.3,8.7-22.9,11.9L494,143.6z M502.9,74.9c-4.4,0-7.8,1.6-10.3,4.7
		c-2.5,3.2-3.7,7.5-3.7,12.9c0,6.8,2.5,11.7,7.4,14.7c2,1.3,4,1.9,6,1.9h0.2c4.5-0.1,8.7-2.3,12.5-6.3V80.8
		C511.5,76.9,507.4,74.9,502.9,74.9z"/>
	<path class="st0" d="M553.9,125.1V58.7h18.9v2.7c3.3-2.5,7.3-3.8,11.9-3.8c4.5,0,8.6,1.5,12.5,4.6l-5.1,17.8
		c-2.7-3.2-5.5-4.8-8.4-4.8c-3.7,0-6.6,1.5-8.5,4.4c-1.7,2.5-2.5,5.9-2.5,10.1v35.5H553.9z"/>
	<path class="st0" d="M626.7,33.9c1.9,1.8,2.8,3.9,2.8,6.4s-1,4.6-2.9,6.4c-1.9,1.8-4.1,2.7-6.7,2.7c-2.7,0-5-0.9-6.8-2.6
		c-1.8-1.8-2.7-4-2.7-6.6c0-2.5,0.9-4.6,2.8-6.3c1.9-1.7,4.1-2.6,6.7-2.6C622.5,31.2,624.8,32.1,626.7,33.9z M610.6,125.1V58.9h18.6
		v66.2H610.6z"/>
	<path class="st0" d="M679.4,126.2c-9.6,0-17.4-3.3-23.5-10c-6.1-6.6-9.1-14.8-9.1-24.6c0-8.6,2.9-16.3,8.8-23.1
		c6.4-7.3,14.3-10.9,23.9-10.9c5.3,0,10.2,1,14.6,2.9V40.3l18.6-7.5v92.3h-18.3v-2.5C689.9,125,684.9,126.2,679.4,126.2z
		 M680.3,74.8c-4.5,0-8.1,1.3-10.6,3.8c-2.9,3-4.4,7.3-4.4,12.9c0,5.6,1.5,9.9,4.5,12.9c2.8,2.9,6.5,4.3,11.1,4.3
		c4.9,0,9.2-2.1,13.1-6.4V80.6C690.1,76.7,685.5,74.8,680.3,74.8z"/>
</g>
<path class="st0" d="M148.8,80.4c-3,38.4-35.1,68.7-74.3,68.7c-5.4,0-10.6-0.6-15.7-1.7c-4.2-0.9-8.3-2.2-12.3-3.8
	c-5.7-2.3-11.1-5.3-16-8.9c-4.5-3.3-8.6-7.1-12.3-11.3C6.9,110.3,0,93.2,0,74.5c0-18.7,6.9-35.8,18.3-48.9v45.8
	c-0.1,1-0.1,2-0.1,3.1c0,1,0,2,0.1,3.1c0.7,12.1,5.1,23.2,12.3,32.1c4.4,5.5,9.9,10.2,16,13.7c3.8,2.2,7.9,4,12.3,5.2
	c5,1.4,10.3,2.2,15.7,2.2c29.1,0,53.1-22.1,56-50.5H148.8z"/>
<path class="st0" d="M147.7,60.1H129c-6.4-24.1-28.3-41.9-54.5-41.9c-5.4,0-10.7,0.8-15.7,2.2V1.7C63.9,0.6,69.1,0,74.5,0
	C110.8,0,140.9,25.8,147.7,60.1z"/>
<path class="st1" d="M118.5,74.5c0,2-0.1,3.9-0.4,5.9c-2.9,21.5-21.3,38.2-43.6,38.2c-5.5,0-10.8-1-15.7-2.9
	c-4.5-1.7-8.6-4.1-12.3-7.1c-9.8-8.1-16-20.3-16-34V14.4c4.9-3.6,10.3-6.6,16-8.9v69.1c0,2,0.2,4,0.6,5.9
	c1.5,7.2,5.8,13.3,11.7,17.3c4.5,3,9.9,4.8,15.7,4.8c13.4,0,24.7-9.5,27.4-22.1c0.4-1.9,0.6-3.8,0.6-5.9c0-5.3-1.5-10.2-4-14.4
	c-4.9-8.1-13.8-13.5-24-13.5c-5.8,0-11.2,1.8-15.7,4.8v-18c4.9-1.9,10.2-2.9,15.7-2.9c19.2,0,35.6,12.3,41.6,29.5
	C117.7,64.6,118.5,69.5,118.5,74.5z"/>
<path class="st0" d="M88.1,74.5c0,2.1-0.5,4.1-1.3,5.9c-2.2,4.5-6.8,7.7-12.2,7.7c-5.4,0-10-3.1-12.2-7.7c-0.8-1.8-1.3-3.8-1.3-5.9
	C61,67.1,67.1,61,74.5,61C82,61,88.1,67.1,88.1,74.5z"/>
</svg>
