<?xml version="1.0" encoding="utf-8"?>
<!-- Generator: Adobe Illustrator 24.0.0, SVG Export Plug-In . SVG Version: 6.00 Build 0)  -->
<svg version="1.1" id="Layer_1" xmlns="http://www.w3.org/2000/svg" xmlns:xlink="http://www.w3.org/1999/xlink" x="0px" y="0px"
	 viewBox="0 0 557.6 149.1" style="enable-background:new 0 0 557.6 149.1;" xml:space="preserve">
<style type="text/css">
	.st0{fill:#2C74B3;}
	.st1{fill:#FFA500;}
</style>
<g>
	<path class="st0" d="M174.9,104V39.9h34.3c5.6,0,10.1,1.5,13.3,4.6c3.4,3.2,5.1,7.5,5.1,12.8c0,5.7-1.6,9.9-4.8,12.6
		c2.3,1.4,4.1,3.4,5.5,6c1.3,2.5,2,5.3,2,8.4c0,6-1.7,10.8-5.2,14.3c-3.5,3.6-8.1,5.4-13.9,5.4H174.9z M208.5,63.7
		c2.3,0,3.8-0.5,4.6-1.6c0.8-1.1,1.2-2.6,1.2-4.7c0-1.9-0.6-3.2-1.7-3.8c-1.1-0.6-2.6-1-4.5-1h-20.1v11.1H208.5z M208.6,91.3
		c3.6,0,5.9-0.7,7-2c0.8-0.9,1.3-2.3,1.3-4.5c-0.1-3-0.7-5.2-1.9-6.4c-1.2-1.3-3.3-1.9-6.2-1.9h-20.7v14.8H208.6z"/>
	<path class="st0" d="M243.6,104V43.7l13.3-5.3V104H243.6z"/>
	<path class="st0" d="M290.5,105c-5.8,0-10.4-1.6-13.6-4.7c-3.5-3.4-5.3-8.3-5.3-14.7V56.8h13.2v27.5c0,3.5,0.7,5.8,2.3,7.1
		c1.5,1.3,3.8,1.9,6.8,1.9c3.1,0,5.4-0.7,6.8-2.2c1.4-1.5,2.1-3.8,2.1-6.9V56.8h13.3V104h-13.3v-1.4
		C300.3,104.2,296.3,105,290.5,105z"/>
	<path class="st0" d="M352.3,104.9c-7,0-12.8-2.3-17.3-7c-4.5-4.6-6.7-10.5-6.7-17.5c0-7.1,2.2-12.9,6.7-17.5
		c4.5-4.6,10.1-6.9,17-6.9c7.3,0,13.1,2.7,17.3,8c4.3,5.4,6.5,12.5,6.5,21.1h-33.7c0.7,2.3,1.9,4.2,3.7,5.6c1.8,1.4,3.8,2.1,6.2,2.1
		c1.8,0,3.5-0.4,5.3-1.3c1.8-0.9,3-1.9,3.7-3l9.9,9.1C365.6,102.4,359.4,104.9,352.3,104.9z M360.9,74.3c-0.6-2-1.7-3.6-3.4-4.6
		c-1.6-1-3.5-1.6-5.7-1.6c-2.5,0-4.6,0.5-6.3,1.6c-1.7,1.1-2.9,2.6-3.5,4.5H360.9z"/>
	<path class="st0" d="M402,117.2c3.6-0.7,7-2.2,10.2-4.4c3.1-2.2,4.7-4.5,4.7-6.8v-3.5c-2.4,1.6-5.9,2.5-10.6,2.6h-0.1
		c-6.7,0-12-2.5-15.7-7.4c-3.5-4.5-5.2-10.1-5.2-16.8c0-7,1.7-12.8,5.1-17.4c3.9-5,9.2-7.5,16.1-7.5c3.9,0,7.5,0.9,10.7,2.7v-1.8
		H430v46.3c0,7.1-2,12.7-5.9,16.7c-3.3,3.4-8.7,6.2-16.3,8.5L402,117.2z M408.3,68.3c-3.1,0-5.6,1.1-7.3,3.4
		c-1.8,2.2-2.6,5.3-2.6,9.2c0,4.8,1.8,8.3,5.3,10.5c1.4,0.9,2.8,1.4,4.2,1.4h0.2c3.2-0.1,6.2-1.6,8.9-4.5V72.5
		C414.4,69.7,411.5,68.3,408.3,68.3z"/>
	<path class="st0" d="M444.6,104V56.8H458v1.9c2.4-1.8,5.2-2.7,8.5-2.7c3.2,0,6.1,1.1,8.9,3.3l-3.7,12.7c-1.9-2.3-3.9-3.4-5.9-3.4
		c-2.7,0-4.7,1-6,3.1c-1.2,1.8-1.8,4.2-1.8,7.2V104H444.6z"/>
	<path class="st0" d="M496.4,39.1c1.3,1.3,2,2.8,2,4.5s-0.7,3.3-2,4.6c-1.4,1.3-2.9,1.9-4.8,1.9c-1.9,0-3.5-0.6-4.8-1.9
		c-1.3-1.3-2-2.8-2-4.7c0-1.8,0.7-3.3,2-4.5c1.3-1.2,2.9-1.8,4.8-1.8S495,37.8,496.4,39.1z M484.9,104V56.9h13.3V104H484.9z"/>
	<path class="st0" d="M533.9,104.8c-6.8,0-12.4-2.4-16.7-7.1c-4.3-4.7-6.5-10.5-6.5-17.5c0-6.1,2.1-11.6,6.3-16.4
		c4.5-5.2,10.2-7.8,17-7.8c3.8,0,7.3,0.7,10.4,2.1V43.7l13.3-5.4V104h-13v-1.8C541.4,104,537.8,104.8,533.9,104.8z M534.6,68.2
		c-3.2,0-5.8,0.9-7.6,2.7c-2.1,2.1-3.1,5.2-3.1,9.2c0,4,1.1,7,3.2,9.2c2,2,4.6,3,7.9,3c3.5,0,6.6-1.5,9.3-4.6V72.4
		C541.5,69.6,538.2,68.2,534.6,68.2z"/>
</g>
<path class="st0" d="M148.8,80.4c-3,38.4-35.1,68.7-74.3,68.7c-5.4,0-10.6-0.6-15.7-1.7c-4.2-0.9-8.3-2.2-12.3-3.8
	c-5.7-2.3-11.1-5.3-16-8.9c-4.5-3.3-8.6-7.1-12.3-11.3C6.9,110.3,0,93.2,0,74.5c0-18.7,6.9-35.8,18.3-48.9v45.8
	c-0.1,1-0.1,2-0.1,3.1c0,1,0,2,0.1,3.1c0.7,12.1,5.1,23.2,12.3,32.1c4.4,5.5,9.9,10.2,16,13.7c3.8,2.2,7.9,4,12.3,5.2
	c5,1.4,10.3,2.2,15.7,2.2c29.1,0,53.1-22.1,56-50.5H148.8z"/>
<path class="st0" d="M147.7,60.1H129c-6.4-24.1-28.3-41.9-54.5-41.9c-5.4,0-10.7,0.8-15.7,2.2V1.7C63.9,0.6,69.1,0,74.5,0
	C110.8,0,140.9,25.8,147.7,60.1z"/>
<path class="st1" d="M118.5,74.5c0,2-0.1,3.9-0.4,5.9c-2.9,21.5-21.3,38.2-43.6,38.2c-5.5,0-10.8-1-15.7-2.9
	c-4.5-1.7-8.6-4.1-12.3-7.1c-9.8-8.1-16-20.3-16-34V14.4c4.9-3.6,10.3-6.6,16-8.9v69.1c0,2,0.2,4,0.6,5.9
	c1.5,7.2,5.8,13.3,11.7,17.3c4.5,3,9.9,4.8,15.7,4.8c13.4,0,24.7-9.5,27.4-22.1c0.4-1.9,0.6-3.8,0.6-5.9c0-5.3-1.5-10.2-4-14.4
	c-4.9-8.1-13.8-13.5-24-13.5c-5.8,0-11.2,1.8-15.7,4.8v-18c4.9-1.9,10.2-2.9,15.7-2.9c19.2,0,35.6,12.3,41.6,29.5
	C117.7,64.6,118.5,69.5,118.5,74.5z"/>
<path class="st0" d="M88.1,74.5c0,2.1-0.5,4.1-1.3,5.9c-2.2,4.5-6.8,7.7-12.2,7.7c-5.4,0-10-3.1-12.2-7.7c-0.8-1.8-1.3-3.8-1.3-5.9
	C61,67.1,67.1,61,74.5,61C82,61,88.1,67.1,88.1,74.5z"/>
</svg>
