<?xml version="1.0" encoding="utf-8"?>
<!-- Generator: Adobe Illustrator 24.0.0, SVG Export Plug-In . SVG Version: 6.00 Build 0)  -->
<svg version="1.1" id="Layer_1" xmlns="http://www.w3.org/2000/svg" xmlns:xlink="http://www.w3.org/1999/xlink" x="0px" y="0px"
	 viewBox="0 0 88 113.1" style="enable-background:new 0 0 88 113.1;" xml:space="preserve">
<style type="text/css">
	.st0{fill:#FFA500;}
</style>
<path class="st0" d="M88,69c0,2-0.1,3.9-0.4,5.9c-2.9,21.5-21.3,38.2-43.6,38.2c-5.5,0-10.8-1-15.7-2.9c-4.5-1.7-8.6-4.1-12.3-7.1
	C6.2,95,0,82.8,0,69.1V8.9C4.9,5.3,10.3,2.3,16,0v69.1c0,2,0.2,4,0.6,5.9c1.5,7.2,5.8,13.3,11.7,17.3c4.5,3,9.9,4.8,15.7,4.8
	c13.4,0,24.7-9.5,27.4-22.1c0.4-1.9,0.6-3.8,0.6-5.9c0-5.3-1.5-10.2-4-14.4c-4.9-8.1-13.8-13.5-24-13.5c-5.8,0-11.2,1.8-15.7,4.8V28
	c4.9-1.9,10.2-2.9,15.7-2.9c19.2,0,35.6,12.3,41.6,29.5C87.2,59.1,88,64,88,69z"/>
</svg>
