<?xml version="1.0" encoding="utf-8"?>
<!-- Generator: Adobe Illustrator 24.0.0, SVG Export Plug-In . SVG Version: 6.00 Build 0)  -->
<svg version="1.1" id="Layer_1" xmlns="http://www.w3.org/2000/svg" xmlns:xlink="http://www.w3.org/1999/xlink" x="0px" y="0px"
	 viewBox="0 0 148.8 149.1" style="enable-background:new 0 0 148.8 149.1;" xml:space="preserve">
<style type="text/css">
	.st0{fill:#2C74B3;}
</style>
<path class="st0" d="M148.8,80.4c-3,38.4-35.1,68.7-74.3,68.7c-5.4,0-10.6-0.6-15.7-1.7c-4.2-0.9-8.3-2.2-12.3-3.8
	c-5.7-2.3-11.1-5.3-16-8.9c-4.5-3.3-8.6-7.1-12.3-11.3C6.9,110.3,0,93.2,0,74.5c0-18.7,6.9-35.8,18.3-48.9v45.8
	c-0.1,1-0.1,2-0.1,3.1c0,1,0,2,0.1,3.1c0.7,12.1,5.1,23.2,12.3,32.1c4.4,5.5,9.9,10.2,16,13.7c3.8,2.2,7.9,4,12.3,5.2
	c5,1.4,10.3,2.2,15.7,2.2c29.1,0,53.1-22.1,56-50.5H148.8z"/>
<path class="st0" d="M147.7,60.1H129c-6.4-24.1-28.3-41.9-54.5-41.9c-5.4,0-10.7,0.8-15.7,2.2V1.7C63.9,0.6,69.1,0,74.5,0
	C110.8,0,140.9,25.8,147.7,60.1z"/>
</svg>
